<svg width="161" height="20" viewBox="0 0 161 20" fill="none" xmlns="http://www.w3.org/2000/svg">
<path d="M50.2292 4.04138V5.34865H50.2685C50.6114 4.79503 51.0471 4.39142 51.5757 4.14139C52.1044 3.89137 52.683 3.76636 53.3188 3.76636C54.1224 3.76636 54.8153 3.91994 55.3975 4.22354C55.9797 4.52714 56.4584 4.93075 56.8441 5.4308C57.2263 5.93085 57.512 6.51662 57.6942 7.18097C57.8799 7.84889 57.9728 8.54538 57.9728 9.27045C57.9728 9.95623 57.8799 10.617 57.6942 11.2492C57.5085 11.8814 57.2299 12.4422 56.8513 12.9315C56.4762 13.4208 56.0047 13.8102 55.444 14.0995C54.8832 14.3888 54.226 14.5352 53.4759 14.5352C52.8437 14.5352 52.258 14.4067 51.7222 14.1495C51.1864 13.8923 50.7471 13.5137 50.4042 13.0101H50.3649V17.8606H47.5575V4.04138H50.2292ZM53.8831 12.16C54.1939 11.9743 54.4439 11.735 54.6368 11.4385C54.8296 11.1421 54.9618 10.7956 55.0439 10.3991C55.1225 10.0027 55.1618 9.59905 55.1618 9.19187C55.1618 8.78469 55.1189 8.38108 55.0332 7.98461C54.9475 7.58815 54.8046 7.23454 54.6082 6.9238C54.4117 6.61305 54.1546 6.36303 53.8474 6.17016C53.5366 5.97728 53.158 5.88442 52.708 5.88442C52.258 5.88442 51.8579 5.98085 51.5507 6.17016C51.24 6.36303 50.99 6.60948 50.7971 6.91308C50.6042 7.21668 50.4721 7.56672 50.3899 7.96318C50.3113 8.35965 50.2721 8.76683 50.2721 9.19187C50.2721 9.61691 50.3149 10.0027 50.4006 10.3991C50.4864 10.7956 50.6257 11.1421 50.815 11.4385C51.0078 11.735 51.2614 11.9778 51.5757 12.16C51.8936 12.3457 52.2758 12.4386 52.7223 12.4386C53.1688 12.4386 53.5688 12.3457 53.8795 12.16H53.8831Z" fill="#030303"/>
<path d="M62.4661 0.140869V5.46637H62.5268C62.884 4.87346 63.3376 4.44128 63.8912 4.16982C64.4448 3.89837 64.9877 3.76264 65.5128 3.76264C66.2664 3.76264 66.8808 3.86622 67.363 4.06981C67.8452 4.2734 68.2238 4.55914 68.5024 4.91989C68.781 5.28421 68.9738 5.72354 69.0846 6.24502C69.1953 6.7665 69.2524 7.34512 69.2524 7.97733V14.2744H66.4415V8.49523C66.4415 7.65229 66.3093 7.02009 66.045 6.60577C65.7807 6.19144 65.3128 5.98071 64.6377 5.98071C63.8734 5.98071 63.3162 6.2093 62.9733 6.66292C62.6304 7.11653 62.4589 7.8666 62.4589 8.90956V14.2744H59.648V0.140869H62.4589H62.4661Z" fill="#030303"/>
<path d="M71.2741 7.19168C71.3134 6.5309 71.4777 5.98442 71.7706 5.54867C72.0599 5.11291 72.4313 4.76288 72.8778 4.49857C73.3278 4.23426 73.8315 4.04496 74.3922 3.93423C74.953 3.82351 75.5173 3.76636 76.0853 3.76636C76.5996 3.76636 77.1211 3.80207 77.6497 3.87351C78.1783 3.94494 78.6605 4.08782 79.0963 4.29855C79.532 4.50928 79.8892 4.80217 80.1642 5.18078C80.4428 5.55581 80.5785 6.05586 80.5785 6.67378V11.9993C80.5785 12.46 80.6035 12.9029 80.6571 13.3244C80.7107 13.7459 80.8036 14.0638 80.9357 14.2745H78.0854C78.0319 14.1173 77.989 13.953 77.9569 13.7887C77.9247 13.6244 77.8997 13.4566 77.889 13.2851C77.439 13.7459 76.9139 14.0709 76.3067 14.2566C75.6995 14.4424 75.078 14.5352 74.4458 14.5352C73.9565 14.5352 73.5029 14.4745 73.0814 14.3566C72.6599 14.2388 72.2885 14.053 71.9741 13.803C71.6563 13.553 71.4098 13.2351 71.2312 12.8529C71.0526 12.4708 70.9633 12.0136 70.9633 11.4849C70.9633 10.9027 71.0669 10.4241 71.2705 10.0491C71.4741 9.67406 71.7384 9.37403 72.0634 9.14901C72.3849 8.92399 72.7564 8.75611 73.1707 8.64539C73.585 8.53467 74.0065 8.44537 74.428 8.37751C74.8494 8.31322 75.2673 8.25964 75.6745 8.22035C76.0853 8.18106 76.446 8.12034 76.7639 8.04176C77.0818 7.96318 77.3318 7.84889 77.5175 7.6953C77.7033 7.54529 77.789 7.32384 77.7747 7.03095C77.7747 6.72735 77.7247 6.48804 77.6247 6.30945C77.5247 6.13087 77.3925 5.99157 77.2282 5.89513C77.0639 5.79512 76.871 5.73083 76.6532 5.69868C76.4353 5.66654 76.1995 5.64868 75.9495 5.64868C75.3959 5.64868 74.9601 5.76655 74.6423 6.00585C74.3244 6.24159 74.1422 6.63806 74.0886 7.19525H71.2777L71.2741 7.19168ZM77.7676 9.27045C77.6497 9.3776 77.4997 9.45975 77.3211 9.5169C77.1425 9.57762 76.9532 9.62405 76.746 9.66692C76.5424 9.7062 76.3281 9.73835 76.1031 9.76692C75.8781 9.79193 75.6531 9.82765 75.4316 9.86694C75.2209 9.90623 75.0137 9.9598 74.8066 10.0241C74.603 10.092 74.4244 10.1777 74.2708 10.292C74.1172 10.4027 73.9958 10.5456 73.9029 10.717C73.81 10.8885 73.7636 11.1063 73.7636 11.3707C73.7636 11.635 73.81 11.8314 73.9029 12.0029C73.9958 12.1743 74.1208 12.31 74.2779 12.41C74.4351 12.51 74.6208 12.5779 74.8316 12.6172C75.0423 12.6565 75.2602 12.6779 75.4852 12.6779C76.0388 12.6779 76.4674 12.585 76.771 12.3993C77.0746 12.2136 77.2997 11.9921 77.4425 11.735C77.589 11.4778 77.6783 11.2171 77.7104 10.9528C77.7426 10.6884 77.7604 10.4777 77.7604 10.3205V9.27045H77.7676Z" fill="#030303"/>
<path d="M85.429 4.04105V5.94123H85.4683C85.6004 5.62334 85.779 5.33046 86.004 5.059C86.2291 4.78755 86.4862 4.55896 86.7755 4.36608C87.0649 4.17321 87.3756 4.02676 87.7042 3.91961C88.0328 3.81603 88.3757 3.76245 88.7329 3.76245C88.9186 3.76245 89.1222 3.7946 89.3472 3.86246V6.47699C89.2151 6.45199 89.0579 6.42699 88.8722 6.40913C88.6864 6.3877 88.5079 6.38056 88.3364 6.38056C87.8221 6.38056 87.3863 6.46628 87.0291 6.63772C86.672 6.80917 86.3862 7.0449 86.1683 7.34136C85.9505 7.63782 85.7969 7.98428 85.704 8.38075C85.6111 8.77721 85.5647 9.20582 85.5647 9.66658V14.2777H82.7537V4.04105H85.4254H85.429Z" fill="#030303"/>
<path d="M93.1904 4.0412V5.42705H93.2297C93.5976 4.89843 94.0441 4.49125 94.5655 4.19836C95.087 3.90905 95.6835 3.76261 96.3586 3.76261C97.0336 3.76261 97.5944 3.88762 98.1302 4.13764C98.6659 4.38767 99.0695 4.83056 99.3481 5.46277C99.6517 5.01272 100.062 4.61983 100.584 4.27337C101.105 3.93048 101.723 3.75903 102.434 3.75903C102.973 3.75903 103.477 3.8269 103.938 3.95548C104.399 4.08764 104.795 4.29837 105.127 4.58768C105.456 4.877 105.713 5.25918 105.899 5.72708C106.084 6.19498 106.177 6.75932 106.177 7.42009V14.2707H103.366V8.47019C103.366 8.12731 103.352 7.80227 103.327 7.49867C103.302 7.19507 103.227 6.93076 103.109 6.70574C102.991 6.48072 102.816 6.30213 102.584 6.16998C102.352 6.03782 102.041 5.97353 101.645 5.97353C101.248 5.97353 100.93 6.04854 100.684 6.20212C100.441 6.35214 100.248 6.55216 100.109 6.79504C99.9696 7.03792 99.8767 7.31651 99.8303 7.62726C99.7839 7.938 99.7625 8.25232 99.7625 8.56663V14.2672H96.9515V8.52734C96.9515 8.22374 96.9443 7.92371 96.93 7.62726C96.9157 7.3308 96.8622 7.05577 96.7622 6.80575C96.6622 6.55573 96.4979 6.35571 96.2657 6.20212C96.0335 6.05211 95.6942 5.97353 95.2477 5.97353C95.1156 5.97353 94.9406 6.0021 94.7227 6.06282C94.5048 6.12354 94.2941 6.23427 94.0905 6.39857C93.8869 6.56287 93.7119 6.80218 93.5654 7.11292C93.419 7.42367 93.3476 7.83085 93.3476 8.3309V14.2707H90.5366V4.03406H93.1904V4.0412Z" fill="#030303"/>
<path d="M108.274 7.19168C108.313 6.5309 108.478 5.98442 108.77 5.54867C109.06 5.11291 109.431 4.76288 109.878 4.49857C110.328 4.23426 110.831 4.04496 111.392 3.93423C111.953 3.82351 112.517 3.76636 113.085 3.76636C113.599 3.76636 114.121 3.80207 114.65 3.87351C115.178 3.94494 115.66 4.08782 116.096 4.29855C116.532 4.50928 116.889 4.80217 117.164 5.18078C117.443 5.55581 117.578 6.05586 117.578 6.67378V11.9993C117.578 12.46 117.603 12.9029 117.657 13.3244C117.711 13.7459 117.803 14.0638 117.936 14.2745H115.085C115.032 14.1173 114.989 13.953 114.957 13.7887C114.925 13.6244 114.9 13.4566 114.889 13.2851C114.439 13.7459 113.914 14.0709 113.307 14.2566C112.699 14.4424 112.078 14.5352 111.446 14.5352C110.956 14.5352 110.503 14.4745 110.081 14.3566C109.66 14.2388 109.288 14.053 108.974 13.803C108.656 13.553 108.41 13.2351 108.231 12.8529C108.053 12.4708 107.963 12.0136 107.963 11.4849C107.963 10.9027 108.067 10.4241 108.27 10.0491C108.474 9.67406 108.738 9.37403 109.063 9.14901C109.385 8.92399 109.756 8.75611 110.171 8.64539C110.585 8.53467 111.006 8.44537 111.428 8.37751C111.849 8.31322 112.267 8.25964 112.674 8.22035C113.085 8.18106 113.446 8.12034 113.764 8.04176C114.082 7.96318 114.332 7.84889 114.517 7.6953C114.703 7.54529 114.789 7.32384 114.775 7.03095C114.775 6.72735 114.725 6.48804 114.625 6.30945C114.525 6.13087 114.392 5.99157 114.228 5.89513C114.064 5.79512 113.871 5.73083 113.653 5.69868C113.435 5.66654 113.199 5.64868 112.949 5.64868C112.396 5.64868 111.96 5.76655 111.642 6.00585C111.324 6.24159 111.142 6.63806 111.089 7.19525H108.278L108.274 7.19168ZM114.767 9.27045C114.65 9.3776 114.5 9.45975 114.321 9.5169C114.142 9.57762 113.953 9.62405 113.746 9.66692C113.542 9.7062 113.328 9.73835 113.103 9.76692C112.878 9.79193 112.653 9.82765 112.432 9.86694C112.221 9.90623 112.014 9.9598 111.806 10.0241C111.603 10.092 111.424 10.1777 111.271 10.292C111.117 10.4027 110.996 10.5456 110.903 10.717C110.81 10.8885 110.764 11.1063 110.764 11.3707C110.764 11.635 110.81 11.8314 110.903 12.0029C110.996 12.1743 111.121 12.31 111.278 12.41C111.435 12.51 111.621 12.5779 111.831 12.6172C112.042 12.6565 112.26 12.6779 112.485 12.6779C113.039 12.6779 113.467 12.585 113.771 12.3993C114.075 12.2136 114.3 11.9921 114.442 11.735C114.589 11.4778 114.678 11.2171 114.71 10.9528C114.742 10.6884 114.76 10.4777 114.76 10.3205V9.27045H114.767Z" fill="#030303"/>
<path d="M122.429 4.04105V5.94123H122.468C122.6 5.62334 122.779 5.33046 123.004 5.059C123.229 4.78755 123.486 4.55896 123.775 4.36608C124.065 4.17321 124.375 4.02676 124.704 3.91961C125.033 3.81603 125.376 3.76245 125.733 3.76245C125.918 3.76245 126.122 3.7946 126.347 3.86246V6.47699C126.215 6.45199 126.058 6.42699 125.872 6.40913C125.686 6.3877 125.508 6.38056 125.336 6.38056C124.822 6.38056 124.386 6.46628 124.029 6.63772C123.672 6.80917 123.386 7.0449 123.168 7.34136C122.95 7.63782 122.797 7.98428 122.704 8.38075C122.611 8.77721 122.565 9.20582 122.565 9.66658V14.2777H119.754V4.04105H122.425H122.429Z" fill="#030303"/>
<path d="M127.34 7.19168C127.379 6.5309 127.544 5.98442 127.837 5.54867C128.126 5.11291 128.497 4.76288 128.944 4.49857C129.394 4.23426 129.897 4.04496 130.458 3.93423C131.019 3.82351 131.583 3.76636 132.151 3.76636C132.666 3.76636 133.187 3.80207 133.716 3.87351C134.244 3.94494 134.726 4.08782 135.162 4.29855C135.598 4.50928 135.955 4.80217 136.23 5.18078C136.509 5.55581 136.645 6.05586 136.645 6.67378V11.9993C136.645 12.46 136.67 12.9029 136.723 13.3244C136.777 13.7459 136.87 14.0638 137.002 14.2745H134.151C134.098 14.1173 134.055 13.953 134.023 13.7887C133.991 13.6244 133.966 13.4566 133.955 13.2851C133.505 13.7459 132.98 14.0709 132.373 14.2566C131.766 14.4424 131.144 14.5352 130.512 14.5352C130.022 14.5352 129.569 14.4745 129.147 14.3566C128.726 14.2388 128.354 14.053 128.04 13.803C127.722 13.553 127.476 13.2351 127.297 12.8529C127.119 12.4708 127.029 12.0136 127.029 11.4849C127.029 10.9027 127.133 10.4241 127.337 10.0491C127.54 9.67406 127.804 9.37403 128.129 9.14901C128.451 8.92399 128.822 8.75611 129.237 8.64539C129.651 8.53467 130.072 8.44537 130.494 8.37751C130.915 8.31322 131.333 8.25964 131.74 8.22035C132.151 8.18106 132.512 8.12034 132.83 8.04176C133.148 7.96318 133.398 7.84889 133.584 7.6953C133.769 7.54529 133.855 7.32384 133.841 7.03095C133.841 6.72735 133.791 6.48804 133.691 6.30945C133.591 6.13087 133.459 5.99157 133.294 5.89513C133.13 5.79512 132.937 5.73083 132.719 5.69868C132.501 5.66654 132.266 5.64868 132.016 5.64868C131.462 5.64868 131.026 5.76655 130.708 6.00585C130.39 6.24159 130.208 6.63806 130.155 7.19525H127.344L127.34 7.19168ZM133.834 9.27045C133.716 9.3776 133.566 9.45975 133.387 9.5169C133.208 9.57762 133.019 9.62405 132.812 9.66692C132.608 9.7062 132.394 9.73835 132.169 9.76692C131.944 9.79193 131.719 9.82765 131.498 9.86694C131.287 9.90623 131.08 9.9598 130.873 10.0241C130.669 10.092 130.49 10.1777 130.337 10.292C130.183 10.4027 130.062 10.5456 129.969 10.717C129.876 10.8885 129.83 11.1063 129.83 11.3707C129.83 11.635 129.876 11.8314 129.969 12.0029C130.062 12.1743 130.187 12.31 130.344 12.41C130.501 12.51 130.687 12.5779 130.898 12.6172C131.108 12.6565 131.326 12.6779 131.551 12.6779C132.105 12.6779 132.533 12.585 132.837 12.3993C133.141 12.2136 133.366 11.9921 133.509 11.735C133.655 11.4778 133.744 11.2171 133.776 10.9528C133.809 10.6884 133.826 10.4777 133.826 10.3205V9.27045H133.834Z" fill="#030303"/>
<path d="M143.71 5.88442C143.259 5.88442 142.884 5.988 142.581 6.19159C142.277 6.39518 142.031 6.65949 141.838 6.98452C141.645 7.30955 141.513 7.66316 141.431 8.05248C141.349 8.4418 141.313 8.82755 141.313 9.20973C141.313 9.59191 141.352 9.95623 141.431 10.3384C141.509 10.7206 141.638 11.067 141.816 11.3778C141.995 11.6885 142.234 11.9421 142.538 12.1386C142.842 12.335 143.209 12.435 143.645 12.435C144.317 12.435 144.835 12.2457 145.199 11.8707C145.563 11.4957 145.788 10.9885 145.881 10.3563H148.592C148.406 11.7171 147.878 12.7529 147.01 13.4637C146.138 14.1781 145.024 14.5317 143.663 14.5317C142.899 14.5317 142.195 14.4031 141.556 14.1459C140.916 13.8887 140.37 13.528 139.923 13.0672C139.473 12.6065 139.123 12.0529 138.873 11.4135C138.623 10.7742 138.498 10.0705 138.498 9.30617C138.498 8.54181 138.613 7.77745 138.845 7.09882C139.077 6.42018 139.416 5.83084 139.863 5.33794C140.313 4.84146 140.859 4.45571 141.506 4.18068C142.152 3.90208 142.892 3.76636 143.724 3.76636C144.331 3.76636 144.913 3.84494 145.478 4.00567C146.038 4.16282 146.538 4.4057 146.981 4.72716C147.424 5.05219 147.785 5.45223 148.06 5.93442C148.335 6.41661 148.496 6.98809 148.535 7.6453H145.785C145.599 6.47019 144.906 5.88442 143.706 5.88442H143.71Z" fill="#030303"/>
<path d="M153.253 0.140869V7.72373L156.796 4.04124H160.122L156.261 7.80231L160.558 14.2744H157.154L154.343 9.70249L153.253 10.7526V14.2779H150.442V0.144442H153.253V0.140869Z" fill="#030303"/>
<path fill-rule="evenodd" clip-rule="evenodd" d="M20.6558 5.38623L15.641 13.9478L20.6558 5.38623Z" fill="url(#paint0_linear_305_757)"/>
<path fill-rule="evenodd" clip-rule="evenodd" d="M9.12971 0.00714353C9.12971 0.00714353 9.11899 0.00714353 9.11185 0.00714353C8.90469 0.0214306 8.7011 0.0392894 8.49393 0.0642918C8.47965 0.0642918 8.46893 0.0678636 8.45464 0.0714353C5.83654 0.414325 3.37917 1.81803 1.7683 4.09682C1.76115 4.1111 1.75044 4.12182 1.73972 4.13611C1.72901 4.14682 1.72186 4.16111 1.71472 4.1754C1.70758 4.18611 1.69686 4.2004 1.68972 4.21111C1.604 4.33255 1.52184 4.46114 1.43969 4.58972C1.40398 4.64687 1.37183 4.70045 1.33611 4.75759C1.3254 4.77545 1.31468 4.78974 1.30754 4.8076C-1.357 9.38303 0.178861 15.2229 4.75072 17.8803C6.37945 18.8268 8.17248 19.2375 9.92979 19.1768L9.92264 19.184H13.2265H12.5658V19.1768C12.5658 19.1768 12.5658 19.1768 12.5693 19.1768L15.1731 14.7335L15.4732 14.2228L15.641 13.9335C15.6232 13.9585 15.6053 13.9799 15.5875 14.0049C15.5767 14.0156 15.566 14.0299 15.5553 14.0406C14.3088 15.5765 12.4693 16.5266 10.4977 16.6516H10.4834H10.4477H10.4334L10.337 16.6552C10.2477 16.6587 10.1512 16.6623 10.0369 16.6623H9.94407H9.91193L8.99755 16.5873C5.52222 16.0801 2.87197 13.0584 2.94341 9.49733C3.01841 5.77555 6.01513 2.7574 9.76191 2.62525C9.88692 2.62168 10.0084 2.61811 10.1298 2.62168L22.3631 2.8717L22.2167 3.11458C23.8347 1.37156 26.0885 0.22145 28.6101 0.0321459C28.6244 0.0321459 28.6423 0.0321459 28.6566 0.0321459C28.6708 0.0321459 28.6887 0.0321459 28.703 0.0321459C28.7173 0.0321459 28.7316 0.0321459 28.7459 0.0321459C28.8959 0.0214306 29.0495 0.0142871 29.1995 0.0142871C29.2673 0.0142871 29.3316 0.0142871 29.3995 0.0142871C29.5174 0.00714353 9.12257 0 9.12257 0L9.12971 0.00714353Z" fill="url(#paint1_linear_305_757)"/>
<path fill-rule="evenodd" clip-rule="evenodd" d="M29.4709 0.0251196C29.4494 0.0251196 29.4316 0.0251196 29.4102 0.0251196C29.3423 0.0251196 29.278 0.0251196 29.2101 0.0251196C29.0566 0.0251196 28.9065 0.0322631 28.7565 0.0429784C28.7422 0.0429784 28.728 0.0429784 28.7137 0.0429784C28.6994 0.0429784 28.6815 0.0429784 28.6672 0.0429784C28.6529 0.0429784 28.6351 0.0429784 28.6208 0.0429784C25.8205 0.250141 23.381 1.52169 21.7487 3.59689C21.7416 3.6076 21.6987 3.73619 21.6916 3.7469C21.5666 3.9112 21.4415 4.0755 21.3273 4.24695C21.3237 4.25052 21.3201 4.25766 21.3165 4.26124L20.6629 5.3792L15.4803 14.23L15.1802 14.7408L12.5764 19.1841C12.5764 19.1841 12.5764 19.1841 12.5728 19.1841L29.2959 19.2877C29.4816 19.2877 29.6673 19.2877 29.8495 19.2734C34.95 19.0198 39.0182 14.848 39.0504 9.70818C39.0825 4.41125 34.8035 0.0822679 29.478 0.0144043L29.4709 0.0251196ZM29.3887 16.6767C29.2637 16.6803 29.1423 16.6838 29.0208 16.6803L16.7875 16.4302L22.7274 6.61503L23.3417 5.59708C23.4132 5.49707 23.4882 5.39706 23.5667 5.29705C23.5775 5.28633 23.5882 5.27205 23.5989 5.26133C24.8454 3.72547 26.6849 2.77538 28.6565 2.65037H28.6708H28.7065H28.7208L28.8172 2.6468C28.9065 2.64322 29.003 2.63965 29.1173 2.63965H29.2101H29.2423L30.1567 2.71466C33.632 3.22185 36.2822 6.24357 36.2108 9.80462C36.1358 13.5264 33.1391 16.5445 29.3923 16.6767H29.3887Z" fill="url(#paint2_linear_305_757)"/>
<path fill-rule="evenodd" clip-rule="evenodd" d="M30.1674 2.71099L29.253 2.63599H29.2209H29.128C29.0137 2.63599 28.9173 2.63599 28.828 2.64313H28.7316L28.7173 2.6467H28.6816H28.6673C26.6957 2.77171 24.8562 3.7218 23.6096 5.25409C23.5989 5.26481 23.5882 5.27909 23.5775 5.28981C23.4989 5.38982 23.4239 5.48983 23.3525 5.58984L22.7381 6.60779L16.7947 16.4194L29.028 16.6766C29.1495 16.6766 29.2709 16.6766 29.3959 16.673C33.1427 16.5409 36.1394 13.5263 36.218 9.80452C36.293 6.2399 33.6427 3.21818 30.171 2.71099H30.1674ZM29.1173 15.4015C29.0459 15.4015 28.9744 15.4051 28.9066 15.4051H28.8244L19.0342 15.1979L23.7168 7.47216L24.3026 6.50421L24.3133 6.48992C24.3561 6.43278 24.399 6.37563 24.4454 6.31491L24.4776 6.27919C25.4562 5.07193 26.9064 4.31115 28.4565 4.19328H28.5315L28.5423 4.18971L28.6851 4.18256C28.7494 4.17899 28.8209 4.17899 28.8994 4.17542H28.9602L29.7852 4.24328H29.7995C32.5891 4.68261 34.6464 7.11855 34.5893 9.91168C34.5285 12.887 32.1247 15.3015 29.1245 15.4051L29.1173 15.4015Z" fill="url(#paint3_linear_305_757)"/>
<path fill-rule="evenodd" clip-rule="evenodd" d="M10.1369 2.63599C10.0155 2.63599 9.89404 2.63599 9.76903 2.63956C6.02225 2.77171 3.02553 5.78986 2.95052 9.51164C2.87909 13.0763 5.52577 16.098 9.00467 16.6016L9.91904 16.6766H9.95119H10.0441C10.1583 16.6766 10.2548 16.6766 10.3441 16.6695H10.4405L10.4548 16.6659H10.4905H10.5048C12.4764 16.5409 14.3159 15.5908 15.5624 14.0549C15.5732 14.0442 15.5839 14.0299 15.5946 14.0192C15.6732 13.9192 15.7482 13.8192 15.8196 13.7192L16.4339 12.7012L22.3738 2.88601L10.1405 2.63599H10.1369ZM15.4553 11.8404L14.8695 12.8084L14.8588 12.8227C14.8159 12.8798 14.7731 12.937 14.7266 12.9977L14.6945 13.0334C13.7158 14.2407 12.2657 15.0014 10.7191 15.1229H10.6477L10.637 15.1265L10.4941 15.1336C10.4298 15.1372 10.3584 15.1407 10.2798 15.1407H10.2191L9.39399 15.0729H9.3797C6.59015 14.6371 4.53282 12.2012 4.58996 9.40806C4.65068 6.43278 7.05091 4.01826 10.0512 3.91111C10.1262 3.91111 10.1976 3.90754 10.2691 3.90754H10.3477L20.1379 4.10755L15.4589 11.8369L15.4553 11.8404Z" fill="url(#paint4_linear_305_757)"/>
<defs>
<linearGradient id="paint0_linear_305_757" x1="15.641" y1="9.66878" x2="20.6558" y2="9.66878" gradientUnits="userSpaceOnUse">
<stop stop-color="#000971"/>
<stop offset="0.11" stop-color="#07147E"/>
<stop offset="0.51" stop-color="#213AAA"/>
<stop offset="0.82" stop-color="#3152C4"/>
<stop offset="1" stop-color="#375BCF"/>
</linearGradient>
<linearGradient id="paint1_linear_305_757" x1="0.000272507" y1="9.60091" x2="29.4066" y2="9.60091" gradientUnits="userSpaceOnUse">
<stop stop-color="#153FCF"/>
<stop offset="0.5" stop-color="#1239BC"/>
<stop offset="1" stop-color="#1131A7"/>
</linearGradient>
<linearGradient id="paint2_linear_305_757" x1="12.5657" y1="9.65818" x2="39.0432" y2="9.65818" gradientUnits="userSpaceOnUse">
<stop stop-color="#153FCF"/>
<stop offset="0.5" stop-color="#1239BC"/>
<stop offset="1" stop-color="#1131A7"/>
</linearGradient>
<linearGradient id="paint3_linear_305_757" x1="16.7947" y1="9.65808" x2="36.218" y2="9.65808" gradientUnits="userSpaceOnUse">
<stop offset="0.04" stop-color="#EE4226"/>
<stop offset="0.16" stop-color="#EE4526"/>
<stop offset="0.26" stop-color="#EF4E27"/>
<stop offset="0.34" stop-color="#F15E28"/>
<stop offset="0.42" stop-color="#F4752A"/>
<stop offset="0.49" stop-color="#F7932C"/>
<stop offset="0.55" stop-color="#FBAE2F"/>
<stop offset="0.62" stop-color="#F9A52E"/>
<stop offset="0.73" stop-color="#F78E2C"/>
<stop offset="0.87" stop-color="#F26929"/>
<stop offset="1" stop-color="#EE4226"/>
</linearGradient>
<linearGradient id="paint4_linear_305_757" x1="2.94695" y1="9.65808" x2="22.3667" y2="9.65808" gradientUnits="userSpaceOnUse">
<stop offset="0.04" stop-color="#EE4226"/>
<stop offset="0.16" stop-color="#EE4526"/>
<stop offset="0.26" stop-color="#EF4E27"/>
<stop offset="0.34" stop-color="#F15E28"/>
<stop offset="0.42" stop-color="#F4752A"/>
<stop offset="0.49" stop-color="#F7932C"/>
<stop offset="0.55" stop-color="#FBAE2F"/>
<stop offset="0.62" stop-color="#F9A52E"/>
<stop offset="0.73" stop-color="#F78E2C"/>
<stop offset="0.87" stop-color="#F26929"/>
<stop offset="1" stop-color="#EE4226"/>
</linearGradient>
</defs>
</svg>
